<svg width="48" height="48" viewBox="0 0 48 48" fill="none" xmlns="http://www.w3.org/2000/svg">
  <path d="M24 4C12.9543 4 4 12.9543 4 24C4 35.0457 12.9543 44 24 44C35.0457 44 44 35.0457 44 24C44 12.9543 35.0457 4 24 4Z" fill="#F05032"/>
  <path d="M24 4C12.9543 4 4 12.9543 4 24C4 35.0457 12.9543 44 24 44C35.0457 44 44 35.0457 44 24C44 12.9543 35.0457 4 24 4Z" stroke="#F05032" stroke-width="1"/>
  <path d="M32 16C32 18.2091 30.2091 20 28 20C25.7909 20 24 18.2091 24 16C24 13.7909 25.7909 12 28 12C30.2091 12 32 13.7909 32 16Z" fill="white"/>
  <path d="M20 32C20 34.2091 18.2091 36 16 36C13.7909 36 12 34.2091 12 32C12 29.7909 13.7909 28 16 28C18.2091 28 20 29.7909 20 32Z" fill="white"/>
  <path d="M32 32C32 34.2091 30.2091 36 28 36C25.7909 36 24 34.2091 24 32C24 29.7909 25.7909 28 28 28C30.2091 28 32 29.7909 32 32Z" fill="white"/>
  <path d="M24 16L24 32" stroke="white" stroke-width="2" stroke-linecap="round"/>
  <path d="M20 32L28 32" stroke="white" stroke-width="2" stroke-linecap="round"/>
</svg> 