<svg width="48" height="48" viewBox="0 0 48 48" fill="none" xmlns="http://www.w3.org/2000/svg">
  <path d="M24 4C12.9543 4 4 12.9543 4 24C4 32.9543 9.0457 40.5 16 43.5C17.2 43.8 17.5 43.2 17.5 42.7C17.5 42.3 17.5 41.1 17.5 39.8C12 40.8 10.5 37.5 10 36C9.5 35 8.5 34 8.5 34C7.5 32.5 8.5 32.5 9 32.5C9.5 32.5 10.5 33 11 34C12 36 13.5 37.5 17.5 39.8C17.5 38.5 17.5 37.3 17.5 36.9C17.5 36.4 17.2 35.8 16 35.5C9.0457 32.5 4 24.9543 4 16C4 7.0457 12.9543 0 24 0C35.0457 0 44 7.0457 44 16C44 24.9543 38.9543 32.5 32 35.5C30.8 35.8 30.5 36.4 30.5 36.9C30.5 37.3 30.5 38.5 30.5 39.8C34.5 37.5 36 40.8 31.5 42.7C31.5 43.2 31.8 43.8 33 43.5C40.9543 40.5 46 32.9543 46 24C46 12.9543 35.0457 4 24 4Z" fill="#181717"/>
  <path d="M24 4C12.9543 4 4 12.9543 4 24C4 32.9543 9.0457 40.5 16 43.5C17.2 43.8 17.5 43.2 17.5 42.7C17.5 42.3 17.5 41.1 17.5 39.8C12 40.8 10.5 37.5 10 36C9.5 35 8.5 34 8.5 34C7.5 32.5 8.5 32.5 9 32.5C9.5 32.5 10.5 33 11 34C12 36 13.5 37.5 17.5 39.8C17.5 38.5 17.5 37.3 17.5 36.9C17.5 36.4 17.2 35.8 16 35.5C9.0457 32.5 4 24.9543 4 16C4 7.0457 12.9543 0 24 0C35.0457 0 44 7.0457 44 16C44 24.9543 38.9543 32.5 32 35.5C30.8 35.8 30.5 36.4 30.5 36.9C30.5 37.3 30.5 38.5 30.5 39.8C34.5 37.5 36 40.8 31.5 42.7C31.5 43.2 31.8 43.8 33 43.5C40.9543 40.5 46 32.9543 46 24C46 12.9543 35.0457 4 24 4Z" stroke="#181717" stroke-width="1"/>
</svg> 